<svg width="82" height="66" viewBox="0 0 82 66" fill="none" xmlns="http://www.w3.org/2000/svg">
<path d="M55.1695 43.2714C52.5949 43.7101 51.2786 45.7146 51.2786 49.2417C51.2786 52.7915 53.032 55.1654 55.7205 55.1654C56.971 55.1654 58.1075 54.7274 60.4965 53.4917V56.3633C57.6288 57.7492 55.9413 58.1783 53.6311 58.1783C51.1295 58.1783 49.3703 57.4781 47.9329 55.9342C46.4603 54.3814 45.7237 52.3309 45.7237 50.047C45.7237 44.9671 49.2922 41.5299 54.5039 41.5299C57.9655 41.5299 60.346 43.1966 60.346 45.6453C60.346 47.2214 59.2382 48.3061 57.5936 48.3061C56.7495 48.3061 56.0565 48.0733 55.1695 47.5303V43.2714ZM42.4639 50.0471C44.7722 46.98 45.5876 45.7429 45.5876 44.2368C45.5876 42.7369 44.4582 41.53 42.9498 41.53C42.0204 41.53 41.1835 41.992 40.7752 42.4733V48.7216L36.993 54.0335V41.9227H33.3966L27.4189 52.3688V41.9227H25.3524L19.9251 43.3169V44.7791L22.8853 45.0956V57.9066H26.7117L32.445 47.9753V57.9066H36.6348L42.4639 50.0471ZM8.49904 57.7494C9.49356 57.8696 10.4582 57.9066 11.0378 57.9066C16.1642 57.9066 19.4174 54.4488 19.4174 49.3085C19.4174 44.8622 16.9796 41.6516 13.6762 41.6516C12.246 41.6516 11.2879 41.9611 8.49904 43.7096V41.5699H6.95416L1 43.4762V45.0133H3.46516V62.9351L1.2475 63.5165V65H10.9805L10.9798 63.5165L8.49904 62.9351V57.7494ZM8.49904 45.1787C9.37896 45.0661 9.81465 45.0133 10.2302 45.0133C12.7247 45.0133 14.0761 46.7603 14.0761 50.0472C14.0761 53.9292 12.4244 55.955 9.34245 55.955C9.08516 55.955 8.90607 55.955 8.499 55.9344L8.49904 45.1787ZM37.0017 32.4083H51.9015V28.4817H37.0017V32.4083ZM80.2562 21.4144H77.2198V27.6971H80.2562V21.4144ZM69.683 27.6971H76.4754V21.4145H69.683V27.6971ZM52.6451 4.06722H66.0155V1.78468H52.6451V4.06722ZM68.9385 4.85117H66.7593V8.84716H68.9385V4.85117ZM66.76 20.6305H68.9392V9.63176H66.76V20.6305ZM66.76 27.6971H68.9392V21.4145H66.76V27.6971ZM61.1868 27.6971H66.0162V21.4145H61.1868V27.6971ZM52.6451 27.6971H60.4431V21.4145H52.6451V27.6971ZM52.6451 9.6318L52.6464 16.6963L61.1868 16.6956V20.6305H66.0155V9.6318H52.6451ZM52.6451 8.84784H66.0155V4.85185H52.6451V8.84784ZM52.6451 20.6305H60.4431V17.4802H52.6451V20.6305ZM76.4754 9.6318H69.683V20.6305H76.4754V9.6318ZM81 20.6305V28.4817H51.9015L51.9012 1H66.76V4.06717H69.683V8.84712H77.2198V20.6305H81Z" fill="white"/>
</svg>
